<?xml version="1.0"?>
<svg xmlns="http://www.w3.org/2000/svg" id="Layer_1" height="512px" viewBox="0 0 128 128" width="512px" data-name="Layer 1"><g transform="matrix(0.331033 0 0 0.331033 42.8139 42.8139)"><path d="m88.708 75.76a1.726 1.726 0 0 0 -.177-.087 40.07 40.07 0 0 0 -6.1-2.353 22.764 22.764 0 0 0 1.873-3.08l3.04-.292a1.75 1.75 0 0 0 1.583-1.742v-2.906a1.738 1.738 0 0 0 1.336.633 11.648 11.648 0 0 0 1.75-23.165v-5.343c.002-13.054-12.566-23.675-28.013-23.675s-28.015 10.621-28.015 23.675v5.342a11.648 11.648 0 0 0 1.75 23.165 1.75 1.75 0 0 0 1.75-1.75v-.282h2.115a22.611 22.611 0 0 0 3.965 9.418 40.067 40.067 0 0 0 -6.082 2.345 1.724 1.724 0 0 0 -.2.1 41.126 41.126 0 0 0 -23 36.738 1.732 1.732 0 0 0 1.75 1.728 1.769 1.769 0 0 0 1.75-1.772 37.58 37.58 0 0 1 20.2-33.14l13.155 10.091a1.75 1.75 0 0 0 2.139-.006l1.615-1.254 5.119 5.272-5.994 18.543a1.75 1.75 0 1 0 3.33 1.076l4.653-14.394 4.652 14.393a1.75 1.75 0 1 0 3.33-1.076l-5.993-18.543 5.119-5.272 1.615 1.253a1.75 1.75 0 0 0 2.139.006l13.147-10.09a37.58 37.58 0 0 1 20.2 33.14v.044a1.732 1.732 0 0 0 1.75 1.728 1.769 1.769 0 0 0 1.75-1.772 41.1 41.1 0 0 0 -23.001-36.696zm-44.625-29.551c-.583-4.77-.739-13.209 4.173-18.743 3.316-3.734 8.5-5.612 15.441-5.612a47.715 47.715 0 0 1 6.385.461c.04 0 .079.009.118.012a14.359 14.359 0 0 1 9.181 5.092c3.266 3.937 4.635 9.7 4.078 17.148a20.231 20.231 0 0 1 -10.08-8.988 19.6 19.6 0 0 1 -1.019-2.4 1.75 1.75 0 0 0 -3.227-.179 9.812 9.812 0 0 1 -4.413 4.4 44.869 44.869 0 0 1 -10.869 4.02c-3.663.947-6.72 1.738-9.768 4.789zm44.432 14.191h-1.792c0-.121.009-.241.009-.362v-11.888h1.783zm9.906-6.126a8.17 8.17 0 0 1 -6.406 7.966v-15.93a8.171 8.171 0 0 1 6.405 7.966zm-58.936-16.849c0-11.125 11-20.175 24.515-20.175s24.515 9.05 24.515 20.175v7.225h-1.56c.587-8.3-1.045-14.844-4.88-19.466a17.9 17.9 0 0 0 -11.575-6.345c-11.418-1.535-19.786.584-24.865 6.3-5.178 5.83-5.662 13.986-5.24 19.508h-.914v-7.222zm-9.905 16.851a8.171 8.171 0 0 1 6.406-7.967v15.934a8.17 8.17 0 0 1 -6.406-7.967zm9.905 6.124v-12.25h1.33c.183 1.129.363 1.939.453 2.318v9.572c0 .122.007.241.009.362zm5.283-9.58c3.052-4.217 5.688-4.909 9.959-6.013a48.527 48.527 0 0 0 11.633-4.321 14.235 14.235 0 0 0 4.015-3.1c3.585 6.826 10.091 9.839 12.857 10.856v11.8a19.1 19.1 0 0 1 -1.306 6.913l-13.233 1.266a5.2 5.2 0 1 0 .333 3.484l11-1.055a19.222 19.222 0 0 1 -35.258-10.61zm9.432 34.989-10.589-8.126a36.557 36.557 0 0 1 4.483-1.423 22.712 22.712 0 0 0 10.774 5.921zm9.8 4.634-4.326-4.455 4.147-3.22h.18s.119 0 .18 0l4.147 3.22zm9.8-4.634-4.672-3.628a22.712 22.712 0 0 0 10.777-5.921 36.557 36.557 0 0 1 4.483 1.423z" data-original="#000000" class="active-path" data-old_color="#000000" fill="#3FC6C2"/><path d="m91.487 96.3a1.75 1.75 0 0 0 -1.75 1.75v14.45a1.75 1.75 0 0 0 3.5 0v-14.451a1.75 1.75 0 0 0 -1.75-1.749z" data-original="#000000" class="active-path" data-old_color="#000000" fill="#3FC6C2"/><path d="m36.513 96.3a1.75 1.75 0 0 0 -1.75 1.75v14.45a1.75 1.75 0 0 0 3.5 0v-14.451a1.75 1.75 0 0 0 -1.75-1.749z" data-original="#000000" class="active-path" data-old_color="#000000" fill="#3FC6C2"/><path d="m69.5 51.531a2.832 2.832 0 0 0 5.585.475h3.132a1.75 1.75 0 1 0 0-3.5h-7.524a1.745 1.745 0 0 0 -1.193 3.025z" data-original="#000000" class="active-path" data-old_color="#000000" fill="#3FC6C2"/><path d="m55.673 54.194a2.839 2.839 0 0 0 2.827-2.663 1.745 1.745 0 0 0 -1.192-3.025h-7.526a1.75 1.75 0 0 0 0 3.5h3.132a2.844 2.844 0 0 0 2.759 2.188z" data-original="#000000" class="active-path" data-old_color="#000000" fill="#3FC6C2"/></g> </svg>
