<?xml version="1.0"?>
<svg xmlns="http://www.w3.org/2000/svg" xmlns:xlink="http://www.w3.org/1999/xlink" version="1.1" id="Capa_1" x="0px" y="0px" viewBox="0 0 512 512" style="enable-background:new 0 0 512 512;" xml:space="preserve" width="512px" height="512px" class=""><g><g>
	<path d="M406,212H181v-47c0-41.355,33.645-75,75-75s75,33.645,75,75c0,8.284,6.716,15,15,15h60c8.284,0,15-6.716,15-15   C421,74.019,346.981,0,256,0S91,74.019,91,165v49.58c-17.459,6.192-30,22.865-30,42.42v60c0,107.523,87.477,195,195,195   s195-87.477,195-195v-60C451,232.187,430.813,212,406,212z M256,30c69.369,0,126.686,52.595,134.172,120h-30.24   C352.631,99.183,308.805,60,256,60c-57.897,0-105,47.103-105,105v47h-30v-47C121,90.561,181.561,30,256,30z M421,317   c0,90.981-74.019,165-165,165S91,407.981,91,317v-60c0-8.271,6.729-15,15-15h300c8.271,0,15,6.729,15,15V317z" data-original="#000000" class="active-path" data-old_color="#000000" fill="#3FC6C2"/>
	<path d="M256,272c-24.813,0-45,20.187-45,45c0,19.555,12.541,36.228,30,42.42V437c0,8.284,6.716,15,15,15s15-6.716,15-15v-77.58   c17.459-6.192,30-22.865,30-42.42C301,292.187,280.813,272,256,272z M256,332c-8.271,0-15-6.729-15-15s6.729-15,15-15   s15,6.729,15,15S264.271,332,256,332z" data-original="#000000" class="active-path" data-old_color="#000000" fill="#3FC6C2"/>
</g></g> </svg>
