<?xml version="1.0"?>
<svg xmlns="http://www.w3.org/2000/svg" xmlns:xlink="http://www.w3.org/1999/xlink" version="1.1" id="Capa_1" x="0px" y="0px" viewBox="0 0 512 512" style="enable-background:new 0 0 512 512;" xml:space="preserve" width="512px" height="512px"><g><g>
	<g>
		<path d="M385.782,219.44H205.651v-95.038c0-27.763,22.586-50.349,50.349-50.349s50.349,22.586,50.349,50.349v51.104    c0,8.272,6.706,14.978,14.978,14.978h44.639c8.272,0,14.978-6.706,14.978-14.978v-50.563C380.943,56.049,324.894,0,255.999,0    S131.057,56.049,131.057,124.942v94.498h-4.839c-19.169,0-34.764,15.596-34.764,34.764v188.981    c0,37.944,30.87,68.815,68.814,68.815H351.73c37.944,0,68.815-30.871,68.815-68.815V254.204    C420.546,235.036,404.951,219.44,385.782,219.44z M161.011,124.942h0.001c0-52.377,42.611-94.987,94.987-94.987    s94.988,42.611,94.988,94.987v35.586h-14.684v-36.126c0-44.28-36.024-80.304-80.304-80.304s-80.304,36.024-80.304,80.304v95.038    h-14.684V124.942z M390.59,443.185c0,21.427-17.432,38.86-38.86,38.86H160.269c-21.427,0-38.859-17.432-38.859-38.86V254.204    c0-2.652,2.158-4.809,4.809-4.809h259.563c2.652,0,4.809,2.158,4.809,4.809V443.185z" data-original="#000000" class="active-path" data-old_color="#000000" fill="#3FC6C2"/>
	</g>
</g><g>
	<g>
		<path d="M255.999,302.113c-23.739,0-43.052,19.313-43.052,43.052c0,18.473,11.698,34.263,28.074,40.36v24.883    c0,8.272,6.706,14.978,14.978,14.978c8.272,0,14.978-6.706,14.978-14.978v-24.883c16.377-6.097,28.074-21.886,28.074-40.36    C299.052,321.426,279.739,302.113,255.999,302.113z M255.999,358.261c-7.221,0-13.096-5.875-13.096-13.096    c0.001-7.221,5.875-13.096,13.096-13.096c7.221,0,13.096,5.875,13.096,13.096S263.221,358.261,255.999,358.261z" data-original="#000000" class="active-path" data-old_color="#000000" fill="#3FC6C2"/>
	</g>
</g></g> </svg>
